<svg preserveAspectRatio="none" width="100%" height="100%" overflow="visible" style="display: block;" viewBox="0 0 40 40" fill="none" xmlns="http://www.w3.org/2000/svg">
<g id="Youtube">
<rect x="0.5" y="0.5" width="39" height="39" rx="7.5" fill="var(--fill-0, #EDEBE8)"/>
<rect x="0.5" y="0.5" width="39" height="39" rx="7.5" stroke="var(--stroke-0, #243031)"/>
<path id="Vector" d="M17.678 23.375V16.6273L23.6099 20.0015L17.678 23.375ZM30.8721 14.5032C30.6042 13.5187 29.8475 12.7575 28.8857 12.4881L28.8653 12.4835C26.4491 12.1763 23.6546 12.0008 20.8184 12.0008C20.5301 12.0008 20.2425 12.0023 19.9557 12.0061L19.9996 12.0053C19.756 12.0023 19.4692 12 19.1809 12C16.3447 12 13.5486 12.1756 10.804 12.5153L11.1324 12.482C10.151 12.7567 9.39425 13.5172 9.13167 14.482L9.12713 14.5017C8.82444 16.0976 8.65191 17.9342 8.65191 19.8108C8.65191 19.8774 8.65191 19.944 8.65267 20.0098V19.9992C8.65267 20.0552 8.65191 20.1218 8.65191 20.1884C8.65191 22.0651 8.8252 23.9009 9.15588 25.6814L9.12713 25.4968C9.395 26.4813 10.1517 27.2425 11.1135 27.5119L11.1339 27.5165C13.5501 27.8237 16.3447 27.9992 19.1809 27.9992C19.4684 27.9992 19.756 27.9977 20.0435 27.9939L19.9996 27.9947C20.2433 27.9977 20.5308 28 20.8184 28C23.6553 28 26.4506 27.8244 29.1952 27.4847L28.8668 27.518C29.849 27.244 30.6058 26.4828 30.8691 25.518L30.8736 25.4983C31.1756 23.9024 31.3481 22.0658 31.3481 20.1899C31.3481 20.1233 31.3481 20.0568 31.3473 19.9909V20.0008C31.3473 19.9448 31.3481 19.8782 31.3481 19.8116C31.3481 17.9349 31.1748 16.0991 30.8441 14.3186L30.8721 14.5032Z" fill="var(--fill-0, #1A1A1A)"/>
</g>
</svg>
