<svg preserveAspectRatio="none" width="100%" height="100%" overflow="visible" style="display: block;" viewBox="0 0 40 40" fill="none" xmlns="http://www.w3.org/2000/svg">
<g id="Instagram">
<rect x="0.5" y="0.5" width="39" height="39" rx="7.5" fill="var(--fill-0, #EDEBE8)"/>
<rect x="0.5" y="0.5" width="39" height="39" rx="7.5" stroke="var(--stroke-0, #243031)"/>
<g id="icon-instagram">
<path d="M25.7148 13.6365C25.1888 13.6365 24.7624 14.0435 24.7624 14.5456C24.7624 15.0476 25.1888 15.4547 25.7148 15.4547C26.2408 15.4547 26.6671 15.0476 26.6671 14.5456C26.6671 14.0435 26.2408 13.6365 25.7148 13.6365Z" fill="var(--fill-0, #1A1A1A)"/>
<path fill-rule="evenodd" clip-rule="evenodd" d="M20.0002 25.4546C23.1561 25.4546 25.7145 23.0125 25.7145 20.0001C25.7145 16.9876 23.1561 14.5455 20.0002 14.5455C16.8443 14.5455 14.2859 16.9876 14.2859 20.0001C14.2859 23.0125 16.8443 25.4546 20.0002 25.4546ZM20.0002 23.6364C22.1041 23.6364 23.8098 22.0083 23.8098 20.0001C23.8098 17.9917 22.1041 16.3637 20.0002 16.3637C17.8963 16.3637 16.1907 17.9917 16.1907 20.0001C16.1907 22.0083 17.8963 23.6364 20.0002 23.6364Z" fill="var(--fill-0, #1A1A1A)"/>
<path fill-rule="evenodd" clip-rule="evenodd" d="M9.52381 18.7273C9.52381 15.6724 9.52381 14.145 10.1466 12.9782C10.6945 11.9519 11.5686 11.1175 12.6439 10.5945C13.8662 10 15.4664 10 18.6667 10H21.3333C24.5336 10 26.1338 10 27.3561 10.5945C28.4313 11.1175 29.3055 11.9519 29.8533 12.9782C30.4762 14.145 30.4762 15.6724 30.4762 18.7273V21.2727C30.4762 24.3275 30.4762 25.855 29.8533 27.0217C29.3055 28.0481 28.4313 28.8825 27.3561 29.4055C26.1338 30 24.5336 30 21.3334 30H18.6667C15.4664 30 13.8662 30 12.6439 29.4055C11.5686 28.8825 10.6945 28.0481 10.1466 27.0217C9.52381 25.855 9.52381 24.3275 9.52381 21.2727V18.7273ZM18.6667 11.8182H21.3333C22.965 11.8182 24.074 11.8196 24.9313 11.8865C25.7665 11.9516 26.1935 12.0696 26.4914 12.2145C27.2082 12.5632 27.791 13.1194 28.1562 13.8037C28.308 14.088 28.4317 14.4957 28.4999 15.2928C28.5699 16.1111 28.5714 17.1699 28.5714 18.7273V21.2727C28.5714 22.8302 28.5699 23.8888 28.4999 24.7072C28.4317 25.5044 28.308 25.912 28.1562 26.1964C27.791 26.8805 27.2082 27.4368 26.4914 27.7855C26.1935 27.9304 25.7665 28.0485 24.9313 28.1135C24.074 28.1804 22.965 28.1818 21.3333 28.1818H18.6667C17.0351 28.1818 15.926 28.1804 15.0686 28.1135C14.2336 28.0485 13.8065 27.9304 13.5086 27.7855C12.7918 27.4368 12.209 26.8805 11.8438 26.1964C11.692 25.912 11.5683 25.5044 11.5001 24.7072C11.4301 23.8888 11.4286 22.8302 11.4286 21.2727V18.7273C11.4286 17.1699 11.4301 16.1111 11.5001 15.2928C11.5683 14.4957 11.692 14.088 11.8438 13.8037C12.209 13.1194 12.7918 12.5632 13.5086 12.2145C13.8065 12.0696 14.2336 11.9516 15.0686 11.8865C15.926 11.8196 17.0351 11.8182 18.6667 11.8182Z" fill="var(--fill-0, #1A1A1A)"/>
</g>
</g>
</svg>
