<svg preserveAspectRatio="none" width="100%" height="100%" overflow="visible" style="display: block;" viewBox="0 0 22 18" fill="none" xmlns="http://www.w3.org/2000/svg">
<g id="Union">
<path d="M1.66667 8.06485V14C1.66667 14.1841 1.8159 14.3333 2 14.3333H10.3261L11.9927 16H2C0.895431 16 0 15.1046 0 14V6.9293L1.66667 8.06485Z" fill="var(--fill-0, #1A1A1A)"/>
<path fill-rule="evenodd" clip-rule="evenodd" d="M19.6667 5.66802V8.3268L21.3333 6.66013V2C21.3333 0.895431 20.4379 0 19.3333 0H2C0.895431 0 0 0.895431 0 2V4.50921L3.2398 6.71658L9.09516 10.6202C10.0469 11.2546 11.2867 11.2546 12.2385 10.6202L19.6667 5.66802ZM19.3333 1.66667H2C1.8159 1.66667 1.66667 1.8159 1.66667 2V3.66474L10.0197 9.2334C10.4115 9.49466 10.9221 9.49466 11.314 9.2334L19.6667 3.66493V2C19.6667 1.8159 19.5174 1.66667 19.3333 1.66667Z" fill="var(--fill-0, #1A1A1A)"/>
<path d="M16 17.1785L21.9226 11.2559L20.7441 10.0774L16 14.8215L13.9226 12.7441L12.7441 13.9226L16 17.1785Z" fill="var(--fill-0, #1A1A1A)"/>
</g>
</svg>
