<svg preserveAspectRatio="none" width="100%" height="100%" overflow="visible" style="display: block;" viewBox="0 0 22 22" fill="none" xmlns="http://www.w3.org/2000/svg">
<g id="Union">
<path d="M10.6667 21.3333C4.77563 21.3333 0 16.5577 0 10.6667H1.66667C1.66667 15.6372 5.6961 19.6667 10.6667 19.6667C15.6372 19.6667 19.6667 15.6372 19.6667 10.6667C19.6667 5.6961 15.6372 1.66667 10.6667 1.66667C8.08252 1.66667 5.75274 2.75577 4.11131 4.5H7.33333V6.16667H1.16667V0H2.83333V3.42666C4.78193 1.31939 7.57022 0 10.6667 0C16.5577 0 21.3333 4.77563 21.3333 10.6667C21.3333 16.5577 16.5577 21.3333 10.6667 21.3333Z" fill="var(--fill-0, #1A1A1A)"/>
<path d="M9.83333 5.33333V10.2764L6.13318 13.3598L7.20015 14.6402L11.5 11.057V5.33333H9.83333Z" fill="var(--fill-0, #1A1A1A)"/>
</g>
</svg>
