<svg preserveAspectRatio="none" width="100%" height="100%" overflow="visible" style="display: block;" viewBox="0 0 40 40" fill="none" xmlns="http://www.w3.org/2000/svg">
<g id="Tiktok">
<rect x="0.5" y="0.5" width="39" height="39" rx="7.5" fill="var(--fill-0, #EDEBE8)"/>
<rect x="0.5" y="0.5" width="39" height="39" rx="7.5" stroke="var(--stroke-0, #243031)"/>
<path id="icon-tiktok" d="M25.8578 14.8493C25.7364 14.7866 25.6181 14.7177 25.5035 14.6431C25.1702 14.4228 24.8646 14.1632 24.5934 13.8699C23.9146 13.0932 23.6611 12.3054 23.5677 11.7537H23.5715C23.4935 11.2959 23.5257 10.9996 23.5306 10.9996H20.4391V22.9538C20.4391 23.1143 20.4391 23.2729 20.4324 23.4296C20.4324 23.4491 20.4305 23.4671 20.4294 23.4881C20.4294 23.4968 20.4294 23.5058 20.4275 23.5148C20.4275 23.517 20.4275 23.5193 20.4275 23.5215C20.3949 23.9504 20.2574 24.3648 20.0271 24.7281C19.7968 25.0914 19.4808 25.3925 19.1068 25.605C18.717 25.8268 18.2761 25.9431 17.8277 25.9425C16.3873 25.9425 15.2199 24.768 15.2199 23.3175C15.2199 21.867 16.3873 20.6925 17.8277 20.6925C18.1003 20.6923 18.3713 20.7352 18.6305 20.8197L18.6343 17.6719C17.8473 17.5703 17.0478 17.6328 16.2862 17.8556C15.5246 18.0784 14.8174 18.4567 14.2093 18.9664C13.6765 19.4294 13.2285 19.9818 12.8856 20.5988C12.7551 20.8238 12.2627 21.7279 12.2031 23.1953C12.1656 24.0281 12.4157 24.891 12.535 25.2476V25.2551C12.61 25.4651 12.9006 26.1817 13.3742 26.7859C13.7561 27.2705 14.2073 27.6962 14.7133 28.0492V28.0417L14.7208 28.0492C16.2174 29.0662 17.8768 28.9995 17.8768 28.9995C18.164 28.9878 19.1263 28.9995 20.219 28.4816C21.431 27.9075 22.121 27.0521 22.121 27.0521C22.5618 26.541 22.9123 25.9586 23.1575 25.3298C23.4372 24.5944 23.5306 23.7124 23.5306 23.3599V17.018C23.5681 17.0405 24.0676 17.3708 24.0676 17.3708C24.0676 17.3708 24.7872 17.8321 25.91 18.1324C26.7155 18.3462 27.8007 18.3912 27.8007 18.3912V15.3222C27.4205 15.3635 26.6483 15.2435 25.8578 14.8493Z" fill="var(--fill-0, #1A1A1A)"/>
</g>
</svg>
