<svg preserveAspectRatio="none" width="100%" height="100%" overflow="visible" style="display: block;" viewBox="0 0 104 104" fill="none" xmlns="http://www.w3.org/2000/svg">
<g id="Symbol">
<path d="M57.0805 0.247752L57.0972 38.0858C57.0995 44.0636 50.7395 47.8962 45.4553 45.1012L7.52197 25.0385C10.415 20.2771 14.0531 16.0198 18.2708 12.4222L48.0217 39.918C49.5981 41.3746 52.0832 39.7953 51.4338 37.7499L39.8963 1.41795C43.7798 0.492622 47.8304 0 51.9962 0C53.7121 0 55.4072 0.085273 57.0805 0.247752Z" fill="var(--fill-0, black)"/>
<path d="M46.7872 103.741L46.7705 66.0934C46.7682 60.1156 53.1282 56.2829 58.4124 59.0779L96.3596 79.1482C93.4469 83.8969 89.7922 88.1404 85.5578 91.7213L55.846 64.2611C54.2696 62.8046 51.7845 64.3839 52.4338 66.4293L63.9277 102.624C60.0983 103.523 56.1059 104 52.0017 104C50.242 104 48.5019 103.912 46.7872 103.741Z" fill="var(--fill-0, black)"/>
<path d="M64.1047 48.1799L91.6575 18.3702C88.0626 14.1359 83.8046 10.483 79.0401 7.57684L58.9208 45.6137C56.1257 50.8977 59.9591 57.258 65.937 57.2552L103.738 57.2384C103.911 55.5157 104 53.7682 104 51.9999C104 47.8878 103.521 43.8881 102.618 40.0514L66.2729 51.592C64.2275 52.2413 62.6481 49.7563 64.1047 48.1799Z" fill="var(--fill-0, black)"/>
<path d="M0.245458 46.9406L37.9322 46.9239C43.9107 46.9216 47.7435 53.2814 44.9484 58.5654L24.9328 96.4064C20.1868 93.5071 15.9431 89.8674 12.3592 85.6499L39.7651 55.9991C41.2217 54.4228 39.6418 51.9377 37.5963 52.5871L1.41281 64.0764C0.490912 60.2011 0 56.1582 0 52C0 50.2928 0.0847011 48.6052 0.245458 46.9406Z" fill="var(--fill-0, black)"/>
</g>
</svg>
